<svg xmlns="http://www.w3.org/2000/svg" viewBox="0 0 15.9 18.86"><g id="Layer_2" data-name="Layer 2"><g id="Calque_1" data-name="Calque 1"><path d="M5.37,5.09H9.68a.29.29,0,0,0,0-.57H5.37a.29.29,0,0,0,0,.57Z" style="fill:#58595b"/><path d="M3.39,7.28h8.27a.29.29,0,0,0,0-.57H3.39a.29.29,0,0,0,0,.57Z" style="fill:#58595b"/><path d="M3.39,8.76h8.27a.29.29,0,0,0,.28-.28.28.28,0,0,0-.28-.28H3.39a.28.28,0,0,0-.28.28A.29.29,0,0,0,3.39,8.76Z" style="fill:#58595b"/><path d="M3.31,11.55h8.27a.28.28,0,0,0,0-.56H3.31a.28.28,0,0,0,0,.56Z" style="fill:#58595b"/><path d="M14.63,1.34h-.22V1.27A1.27,1.27,0,0,0,13.14,0H4.24A.25.25,0,0,0,4,.09l-4,4.09a.32.32,0,0,0-.08.2V16.25a1.27,1.27,0,0,0,1.27,1.27h.22v.07a1.27,1.27,0,0,0,1.27,1.27H14.63a1.27,1.27,0,0,0,1.27-1.27v-15A1.27,1.27,0,0,0,14.63,1.34Zm-11,0V3.53a.71.71,0,0,1-.71.71H.81Zm-3,14.9V4.8H2.9A1.27,1.27,0,0,0,4.17,3.53V.76L4.36.57h8.78a.7.7,0,0,1,.71.7v15a.71.71,0,0,1-.71.71H1.27A.7.7,0,0,1,.57,16.25Zm14.76,1.34a.7.7,0,0,1-.7.71H2.76a.71.71,0,0,1-.71-.71v-.07H13.14a1.27,1.27,0,0,0,1.27-1.27V1.91h.22a.7.7,0,0,1,.7.7Z" style="fill:#58595b"/><path d="M11.58,13.06a.29.29,0,0,0,0-.57H3.31a.29.29,0,0,0,0,.57Z" style="fill:#58595b"/><path d="M11.67,14.12H3.4a.29.29,0,0,0,0,.57h8.27a.29.29,0,0,0,0-.57Z" style="fill:#58595b"/></g></g></svg>